# xmcd
#
# Track frame offsets:
#	150
#	14604
#	38032
#	60929
#	81712
#	104448
#	126736
#	142424
#	164759
#	186543
#	201941
#	222300
#
# Disc length: 3180 seconds
#
# Revision: 1
# Processed by: cddbd v1.5.2PL0 Copyright (c) Steve Scherf et al.
# Submitted via: EasyCDDAExtractor 5.0.6
#
DISCID=c90c6a0c
DTITLE=Golden Delicious - Live at the Laurelthirst
DYEAR=1999
DGENRE=country
TTITLE0=Another Night
TTITLE1=Bonehouse Blues
TTITLE2=I Truly Understand
TTITLE3=Body And Soul
TTITLE4=Wild About My Lovin
TTITLE5=Ruben's Train
TTITLE6=Fine Artiste Blues
TTITLE7=Fair And Tender Ladies
TTITLE8=Alabama Carmody
TTITLE9=Dreadful Snake
TTITLE10=Little Sadie
TTITLE11=Old Plank Road
EXTD=
EXTT0=
EXTT1=
EXTT2=
EXTT3=
EXTT4=
EXTT5=
EXTT6=
EXTT7=
EXTT8=
EXTT9=
EXTT10=
EXTT11=
PLAYORDER=
